# xmcd
# 
# Track frame offsets:
#     150
#     16760
#     32421
#     47502
#     63852
#     79967
#     91356
#     104955
#     121437
#     133878
#     150410
#     164880
# 
# Disc length: 2464
# 
# Revision: 0
# Processed by: cddbd v1.5.2PL0 Copyright (c) Steve Scherf et al.
# Submitted via: fre:ac v1.0.31
# 
DISCID=9c099e0c
DTITLE=Clay McClinton - Bitin' At The Bit
DYEAR=2013
DGENRE=Blues
TTITLE0=Wildflowers
TTITLE1=Stories We Could Tell
TTITLE2=Beer Joint
TTITLE3=Sound Of A Small Town
TTITLE4=Nobody Knows My Baby
TTITLE5=Victim Of Lifes
TTITLE6=Just Dropped In
TTITLE7=Hydrated
TTITLE8=Poison Love
TTITLE9=Woman Who Cant Be
TTITLE10=What A Little Love
TTITLE11=Bound For Glory
EXTD=
EXTT0=
EXTT1=
EXTT2=
EXTT3=
EXTT4=
EXTT5=
EXTT6=
EXTT7=
EXTT8=
EXTT9=
EXTT10=
EXTT11=
PLAYORDER=
